<?xml version="1.0" encoding="UTF-8" standalone="no"?>
<!-- Created with Inkscape (http://www.inkscape.org/) -->

<svg
   width="2.8605123in"
   height="2.0675573in"
   viewBox="0 0 71.512806 51.688933"
   version="1.1"
   id="svg1"
   xmlns="http://www.w3.org/2000/svg"
   xmlns:svg="http://www.w3.org/2000/svg">
  <defs
     id="defs1" />
  <g
     id="layer1"
     transform="translate(-254.99878,-178.58533)">
    <path
       d="m 262.04326,212.04002 v -12.94453 c 0,-0.47472 -0.16954,-0.88162 -0.50862,-1.2207 -0.33909,-0.35604 -0.75447,-0.53406 -1.24614,-0.53406 h -1.75476 v 16.45405 h 1.75476 c 0.49167,0 0.90705,-0.16954 1.24614,-0.50863 0.33908,-0.33908 0.50862,-0.75446 0.50862,-1.24613 z m -7.04447,-18.23424 h 5.28971 c 1.44111,0 2.67876,0.5171 3.71297,1.55131 1.03421,1.03421 1.55131,2.28034 1.55131,3.7384 v 12.94453 c 0,1.11898 -0.32213,2.13623 -0.96639,3.05176 -0.64426,0.89857 -1.48349,1.53435 -2.51769,1.90734 l 3.48408,13.27514 h -3.63667 l -3.38237,-12.94453 v 12.94453 h -3.53495 z m 12.23246,0 h 10.55399 v 3.53495 h -7.01904 v 16.45405 h 5.26428 v 3.53495 h -5.26428 v 9.43501 h 7.01904 v 3.50952 h -10.55399 z m 11.87642,5.28971 c 0,-1.45806 0.5171,-2.70419 1.55131,-3.7384 1.0342,-1.03421 2.27186,-1.55131 3.71297,-1.55131 1.45806,0 2.70419,0.5171 3.7384,1.55131 1.03421,1.03421 1.55131,2.28034 1.55131,3.7384 v 12.94453 h -3.50952 v -12.94453 c 0,-0.47472 -0.17802,-0.88162 -0.53406,-1.2207 -0.33909,-0.35604 -0.75446,-0.53406 -1.24613,-0.53406 -0.47472,0 -0.8901,0.17802 -1.24614,0.53406 -0.33908,0.33908 -0.50862,0.74598 -0.50862,1.2207 v 25.88906 c 0,0.49167 0.16954,0.91553 0.50862,1.27157 0.35604,0.33908 0.77142,0.50862 1.24614,0.50862 0.47471,0 0.89009,-0.17802 1.24613,-0.53406 0.35604,-0.35603 0.53406,-0.77141 0.53406,-1.24613 v -5.90006 h 3.50952 v 5.90006 c 0,1.45806 -0.5171,2.70419 -1.55131,3.7384 -1.03421,1.03421 -2.28034,1.55131 -3.7384,1.55131 -1.44111,0 -2.67877,-0.5171 -3.71297,-1.55131 -1.03421,-1.03421 -1.55131,-2.28034 -1.55131,-3.7384 z m 15.64025,25.88906 c 0,0.49167 0.16954,0.91553 0.50862,1.27157 0.35604,0.33908 0.77142,0.50862 1.24614,0.50862 0.47471,0 0.89009,-0.17802 1.24613,-0.53406 0.35604,-0.35603 0.53406,-0.77141 0.53406,-1.24613 v -25.88906 c 0,-0.47472 -0.17802,-0.88162 -0.53406,-1.2207 -0.33909,-0.35604 -0.75446,-0.53406 -1.24613,-0.53406 -0.47472,0 -0.8901,0.17802 -1.24614,0.53406 -0.33908,0.33908 -0.50862,0.74598 -0.50862,1.2207 z m -3.50952,-25.88906 c 0,-1.45806 0.5171,-2.70419 1.55131,-3.7384 1.03421,-1.03421 2.27186,-1.55131 3.71297,-1.55131 1.45806,0 2.70419,0.5171 3.7384,1.55131 1.03421,1.03421 1.55131,2.28034 1.55131,3.7384 v 25.88906 c 0,1.45806 -0.5171,2.70419 -1.55131,3.7384 -1.03421,1.03421 -2.28034,1.55131 -3.7384,1.55131 -1.44111,0 -2.67876,-0.5171 -3.71297,-1.55131 -1.03421,-1.03421 -1.55131,-2.28034 -1.55131,-3.7384 z m 19.53124,12.94453 v -12.94453 c 0,-0.47472 -0.16954,-0.88162 -0.50863,-1.2207 -0.33909,-0.35604 -0.75446,-0.53406 -1.24613,-0.53406 h -1.75476 v 16.45405 h 1.75476 c 0.49167,0 0.90704,-0.16954 1.24613,-0.50863 0.33909,-0.33908 0.50863,-0.75446 0.50863,-1.24613 z m -7.04447,-18.23424 h 5.28971 c 1.44111,0 2.67876,0.5171 3.71297,1.55131 1.0342,1.03421 1.5513,2.28034 1.5513,3.7384 v 12.94453 c 0,1.11898 -0.32213,2.13623 -0.96638,3.05176 -0.64426,0.89857 -1.48349,1.53435 -2.5177,1.90734 l 3.48408,13.27514 h -3.63667 l -3.38236,-12.94453 v 12.94453 h -3.53495 z m 15.74197,3.53495 v 29.42401 h 1.78019 c 0.47471,0 0.88161,-0.16954 1.2207,-0.50862 0.35604,-0.35604 0.53406,-0.7799 0.53406,-1.27157 v -25.88906 c 0,-0.47472 -0.16954,-0.88162 -0.50863,-1.2207 -0.33908,-0.35604 -0.75446,-0.53406 -1.24613,-0.53406 z m -3.50952,-3.53495 h 5.28971 c 1.44111,0 2.67876,0.5171 3.71297,1.55131 1.03421,1.03421 1.55131,2.28034 1.55131,3.7384 v 25.88906 c 0,1.45806 -0.5171,2.70419 -1.55131,3.7384 -1.03421,1.03421 -2.27186,1.55131 -3.71297,1.55131 h -5.28971 z"
       id="text43"
       style="font-size:52.0833px;line-height:0.8;font-family:'BONNACO CONDENSED';-inkscape-font-specification:'BONNACO CONDENSED, ';letter-spacing:0px;word-spacing:0px;fill:#f3e6de;fill-opacity:1;stroke-width:38.7328"
       aria-label="RECORD" />
    <path
       d="m 254.9988,190.25528 v -11.66995 h 8.83791 v 2.25424 h -6.58368 v 3.13314 h 4.95607 v 2.25424 h -4.95607 v 4.02833 z m 13.16734,-11.20608 q 1.08236,-0.46387 2.27051,-0.46387 1.18816,0 2.26238,0.46387 1.08236,0.46387 1.86361,1.24512 0.78125,0.78125 1.24512,1.86361 0.46387,1.07422 0.46387,2.26238 0,1.18815 -0.46387,2.27051 -0.46387,1.07422 -1.24512,1.85547 -0.78125,0.78125 -1.86361,1.24512 -1.07422,0.46387 -2.26238,0.46387 -1.18815,0 -2.27051,-0.46387 -1.07422,-0.46387 -1.85547,-1.24512 -0.78125,-0.78125 -1.24512,-1.85547 -0.46387,-1.08236 -0.46387,-2.27051 0,-1.18816 0.46387,-2.26238 0.46387,-1.08236 1.24512,-1.86361 0.78125,-0.78125 1.85547,-1.24512 z m -0.26042,7.90204 q 1.04981,1.0498 2.53093,1.0498 1.48113,0 2.53093,-1.0498 1.04981,-1.04981 1.04981,-2.53093 0,-1.48113 -1.04981,-2.53093 -1.0498,-1.04981 -2.53093,-1.04981 -1.48112,0 -2.53093,1.04981 -1.0498,1.0498 -1.0498,2.53093 0,1.48112 1.0498,2.53093 z m 12.23147,-6.11167 v 3.13314 h 3.82488 q 0.65104,0 1.10677,-0.46386 0.46387,-0.46387 0.46387,-1.10678 0,-0.6429 -0.46387,-1.09863 -0.45573,-0.46387 -1.10677,-0.46387 z m -2.25423,5.38738 v -7.63348 h 6.07911 q 1.03353,0 1.91244,0.5127 0.87891,0.51269 1.3916,1.3916 0.5127,0.87891 0.5127,1.91244 0,1.27767 -0.77311,2.29493 -0.77312,1.01725 -1.96941,1.36719 l 2.74252,4.18295 h -2.68555 l -2.64487,-4.02833 h -2.3112 v 4.02833 h -2.25423 z m 19.91377,-5.38738 h -3.82488 v -2.25424 h 9.904 v 2.25424 h -3.82488 v 9.41571 h -2.25424 z m 7.70672,9.41571 v -11.66995 h 2.25424 v 5.38738 h 5.38738 v -5.38738 h 2.25423 v 11.66995 h -2.25423 v -4.02833 h -5.38738 v 4.02833 z m 12.02802,0 v -11.66995 h 8.83791 v 2.25424 h -6.58367 v 3.13314 h 4.95606 v 2.25424 h -4.95606 v 1.77409 h 6.58367 v 2.25424 z"
       id="text44"
       style="font-size:16.6667px;line-height:0.8;font-family:BONNACO;-inkscape-font-specification:BONNACO;letter-spacing:0.130208px;word-spacing:0.260417px;fill:#f3e6de;fill-opacity:1;stroke-width:38.7328"
       aria-label="FOR THE" />
  </g>
</svg>
